<mxfile host="app.diagrams.net" agent="Mozilla/5.0 (Macintosh; Intel Mac OS X 10_15_7) AppleWebKit/605.1.15 (KHTML, like Gecko) Version/18.1 Safari/605.1.15" version="26.1.0">
  <diagram id="5XK8QlfNFUtluHXEVsSS" name="Page-1">
    <mxGraphModel dx="838" dy="593" grid="1" gridSize="10" guides="1" tooltips="1" connect="1" arrows="1" fold="1" page="1" pageScale="1" pageWidth="850" pageHeight="1100" math="0" shadow="0">
      <root>
        <mxCell id="0" />
        <mxCell id="1" parent="0" />
        <mxCell id="1_pebFOLMPWMXed-6l_Z-1" value="" style="swimlane;startSize=0;" vertex="1" parent="1">
          <mxGeometry x="240" y="120" width="160" height="280" as="geometry" />
        </mxCell>
        <mxCell id="1_pebFOLMPWMXed-6l_Z-2" value="Heatbeat 1-2" style="rounded=1;whiteSpace=wrap;html=1;" vertex="1" parent="1_pebFOLMPWMXed-6l_Z-1">
          <mxGeometry x="40" y="40" width="80" height="40" as="geometry" />
        </mxCell>
        <mxCell id="1_pebFOLMPWMXed-6l_Z-3" value="Heatbeat 1-3" style="rounded=1;whiteSpace=wrap;html=1;" vertex="1" parent="1_pebFOLMPWMXed-6l_Z-1">
          <mxGeometry x="40" y="120" width="80" height="40" as="geometry" />
        </mxCell>
        <mxCell id="1_pebFOLMPWMXed-6l_Z-4" value="Heatbeat 1-4" style="rounded=1;whiteSpace=wrap;html=1;" vertex="1" parent="1_pebFOLMPWMXed-6l_Z-1">
          <mxGeometry x="40" y="200" width="80" height="40" as="geometry" />
        </mxCell>
        <mxCell id="1_pebFOLMPWMXed-6l_Z-9" style="edgeStyle=orthogonalEdgeStyle;rounded=0;orthogonalLoop=1;jettySize=auto;html=1;exitX=1;exitY=0.5;exitDx=0;exitDy=0;entryX=0;entryY=0.5;entryDx=0;entryDy=0;" edge="1" parent="1" source="1_pebFOLMPWMXed-6l_Z-5" target="1_pebFOLMPWMXed-6l_Z-2">
          <mxGeometry relative="1" as="geometry" />
        </mxCell>
        <mxCell id="1_pebFOLMPWMXed-6l_Z-10" style="edgeStyle=orthogonalEdgeStyle;rounded=0;orthogonalLoop=1;jettySize=auto;html=1;exitX=1;exitY=0.5;exitDx=0;exitDy=0;" edge="1" parent="1" source="1_pebFOLMPWMXed-6l_Z-5" target="1_pebFOLMPWMXed-6l_Z-3">
          <mxGeometry relative="1" as="geometry" />
        </mxCell>
        <mxCell id="1_pebFOLMPWMXed-6l_Z-11" style="edgeStyle=orthogonalEdgeStyle;rounded=0;orthogonalLoop=1;jettySize=auto;html=1;exitX=1;exitY=0.5;exitDx=0;exitDy=0;entryX=0;entryY=0.5;entryDx=0;entryDy=0;" edge="1" parent="1" source="1_pebFOLMPWMXed-6l_Z-5" target="1_pebFOLMPWMXed-6l_Z-4">
          <mxGeometry relative="1" as="geometry" />
        </mxCell>
        <mxCell id="1_pebFOLMPWMXed-6l_Z-5" value="User 1" style="rounded=1;whiteSpace=wrap;html=1;" vertex="1" parent="1">
          <mxGeometry x="80" y="240" width="80" height="40" as="geometry" />
        </mxCell>
        <mxCell id="1_pebFOLMPWMXed-6l_Z-12" style="edgeStyle=orthogonalEdgeStyle;rounded=0;orthogonalLoop=1;jettySize=auto;html=1;exitX=0;exitY=0.5;exitDx=0;exitDy=0;entryX=1;entryY=0.5;entryDx=0;entryDy=0;" edge="1" parent="1" source="1_pebFOLMPWMXed-6l_Z-6" target="1_pebFOLMPWMXed-6l_Z-2">
          <mxGeometry relative="1" as="geometry" />
        </mxCell>
        <mxCell id="1_pebFOLMPWMXed-6l_Z-6" value="User 2" style="rounded=1;whiteSpace=wrap;html=1;" vertex="1" parent="1">
          <mxGeometry x="480" y="160" width="80" height="40" as="geometry" />
        </mxCell>
        <mxCell id="1_pebFOLMPWMXed-6l_Z-13" style="edgeStyle=orthogonalEdgeStyle;rounded=0;orthogonalLoop=1;jettySize=auto;html=1;exitX=0;exitY=0.5;exitDx=0;exitDy=0;entryX=1;entryY=0.5;entryDx=0;entryDy=0;" edge="1" parent="1" source="1_pebFOLMPWMXed-6l_Z-7" target="1_pebFOLMPWMXed-6l_Z-3">
          <mxGeometry relative="1" as="geometry" />
        </mxCell>
        <mxCell id="1_pebFOLMPWMXed-6l_Z-7" value="User 3" style="rounded=1;whiteSpace=wrap;html=1;" vertex="1" parent="1">
          <mxGeometry x="480" y="240" width="80" height="40" as="geometry" />
        </mxCell>
        <mxCell id="1_pebFOLMPWMXed-6l_Z-14" style="edgeStyle=orthogonalEdgeStyle;rounded=0;orthogonalLoop=1;jettySize=auto;html=1;exitX=0;exitY=0.5;exitDx=0;exitDy=0;entryX=1;entryY=0.5;entryDx=0;entryDy=0;" edge="1" parent="1" source="1_pebFOLMPWMXed-6l_Z-8" target="1_pebFOLMPWMXed-6l_Z-4">
          <mxGeometry relative="1" as="geometry" />
        </mxCell>
        <mxCell id="1_pebFOLMPWMXed-6l_Z-8" value="User 4" style="rounded=1;whiteSpace=wrap;html=1;" vertex="1" parent="1">
          <mxGeometry x="480" y="320" width="80" height="40" as="geometry" />
        </mxCell>
        <mxCell id="1_pebFOLMPWMXed-6l_Z-15" value="User status server" style="text;html=1;align=center;verticalAlign=middle;whiteSpace=wrap;rounded=0;" vertex="1" parent="1">
          <mxGeometry x="240" y="120" width="160" height="40" as="geometry" />
        </mxCell>
      </root>
    </mxGraphModel>
  </diagram>
</mxfile>
